<svg width="150" height="150" viewBox="0 0 150 150" fill="none" xmlns="http://www.w3.org/2000/svg">
    <path d="M66.9219 68.0312V52.1562H75.6859C79.7038 52.1851 81.9589 53.1476 83.2333 54.2946L83.2448 54.3049L83.2563 54.3152C84.4667 55.3911 85.375 57.1125 85.375 60.2812C85.375 62.8731 84.5558 64.5305 83.1075 65.7914L83.0965 65.801L83.0855 65.8107C81.6043 67.1155 79.3492 68.0312 75.75 68.0312H66.9219ZM106.797 105.017L93.2852 80.6011C95.9132 78.9389 98.1697 76.8559 99.996 74.3327C102.985 70.2472 104.422 65.4917 104.422 60.2812C104.422 52.4937 101.951 45.8467 96.4149 41.1811C91.0721 36.6518 83.8455 34.75 75.4688 34.75H52.875H47.875V39.75V108V113H52.875H61.9219H66.9219V108V85.3906H74.9615L88.3597 110.364L89.774 113H92.7656H102.422H107.422V108V107.438V106.146L106.797 105.017Z" stroke="#929292" stroke-width="10"/>
    <path d="M145 75C145 113.66 113.66 145 75 145C36.3401 145 5 113.66 5 75C5 36.3401 36.3401 5 75 5C113.66 5 145 36.3401 145 75Z" stroke="#929292" stroke-width="10"/>
    </svg>
